<?xml version="1.0" encoding="UTF-8"?>
<svg version="1.1" xmlns="http://www.w3.org/2000/svg" width="96" height="96">
<path d="M0 0 C2.78209143 2.78209143 2.33241023 4.54905355 2.375 8.4375 C2.22959702 17.30708153 0.3328356 25.5359047 -5.875 32.1640625 C-10.92483653 36.52697274 -16.4898851 40.24859301 -22 44 C-21.84660156 44.54527344 -21.69320312 45.09054688 -21.53515625 45.65234375 C-20.75167628 49.44024276 -20.42786214 51.94570442 -22.31640625 55.42578125 C-24.112404 57.73381291 -25.98868766 59.87786024 -28 62 C-28.73089844 62.82951172 -28.73089844 62.82951172 -29.4765625 63.67578125 C-30.75 65.0625 -30.75 65.0625 -33 67 C-33.99 67 -34.98 67 -36 67 C-36.26554687 66.36191406 -36.53109375 65.72382812 -36.8046875 65.06640625 C-37.15789063 64.24011719 -37.51109375 63.41382813 -37.875 62.5625 C-38.22304688 61.73878906 -38.57109375 60.91507813 -38.9296875 60.06640625 C-39.8244937 57.84253285 -39.8244937 57.84253285 -42 57 C-42 57.66 -42 58.32 -42 59 C-43.32 59 -44.64 59 -46 59 C-46.45375 59.94875 -46.9075 60.8975 -47.375 61.875 C-49.25070103 65.48211737 -50.06552503 66.65465055 -53.875 68.0625 C-54.90625 68.371875 -55.9375 68.68125 -57 69 C-57.7425 69.226875 -58.485 69.45375 -59.25 69.6875 C-61 70 -61 70 -63 69 C-64.32 69 -65.64 69 -67 69 C-66.979375 68.236875 -66.95875 67.47375 -66.9375 66.6875 C-66.87057159 63.89814214 -66.87057159 63.89814214 -68 61 C-67.34 60.01 -66.68 59.02 -66 58 C-65.71125 57.01 -65.4225 56.02 -65.125 55 C-63.39563526 50.38836069 -60.30927317 49.00073397 -56 47 C-56.495 45.515 -56.495 45.515 -57 44 C-56.34 44 -55.68 44 -55 44 C-57.18517099 41.59424393 -59.25919671 40.20464419 -62.1875 38.8125 C-62.90292969 38.46832031 -63.61835937 38.12414063 -64.35546875 37.76953125 C-65.16951172 37.38861328 -65.16951172 37.38861328 -66 37 C-63.76404543 32.72582835 -61.15408566 30.10334917 -57.375 27.125 C-56.39273438 26.32320312 -55.41046875 25.52140625 -54.3984375 24.6953125 C-50.72612985 22.86337972 -50.24426088 22.93965944 -46.4921875 23.72265625 C-44.20628974 24.18999648 -44.20628974 24.18999648 -42 24 C-39.23978455 21.90593796 -37.58147332 19.22145695 -35.75 16.3125 C-26.87613896 3.01338458 -16.3033653 -1.90760465 0 0 Z " fill="#9D9E9E" transform="translate(81,13)"/>
<path d="M0 0 C0 0.33 0 0.66 0 1 C-1.98 1.33 -3.96 1.66 -6 2 C-6 2.66 -6 3.32 -6 4 C-8.31 4.33 -10.62 4.66 -13 5 C-12.4946875 5.53109375 -11.989375 6.0621875 -11.46875 6.609375 C-10.49421875 7.66898438 -10.49421875 7.66898438 -9.5 8.75 C-8.52546875 9.79414063 -8.52546875 9.79414063 -7.53125 10.859375 C-6 13 -6 13 -6 17 C-7.20038226 18.49236714 -8.40789125 19.98123116 -9.6875 21.40625 C-11.59024994 23.71673207 -12.77238633 26.28632767 -14 29 C-15 27 -15 27 -14.8125 23.625 C-14.6984421 20.02740802 -14.6984421 20.02740802 -16.5625 17.5625 C-19.90506283 15.41983152 -22.10495209 15.50426663 -26 16 C-28.24077514 17.6348779 -28.91101818 18.56967808 -29.4765625 21.3046875 C-29.52554688 22.15289062 -29.57453125 23.00109375 -29.625 23.875 C-29.87253643 27.33040652 -30.21057549 30.61675208 -31 34 C-32.32 34 -33.64 34 -35 34 C-35.33644531 34.82757813 -35.33644531 34.82757813 -35.6796875 35.671875 C-37.40385183 38.71211744 -39.62515822 40.81425673 -42.125 43.25 C-43.03507812 44.14203125 -43.94515625 45.0340625 -44.8828125 45.953125 C-45.58148438 46.62859375 -46.28015625 47.3040625 -47 48 C-49.98923954 46.58653605 -52.65443778 44.93825606 -55.375 43.0625 C-58.82477976 40.73033484 -62.22260697 38.74341217 -66 37 C-63.76404543 32.72582835 -61.15408566 30.10334917 -57.375 27.125 C-56.39273438 26.32320312 -55.41046875 25.52140625 -54.3984375 24.6953125 C-50.72612985 22.86337972 -50.24426088 22.93965944 -46.4921875 23.72265625 C-44.20628974 24.18999648 -44.20628974 24.18999648 -42 24 C-39.23978455 21.90593796 -37.58147332 19.22145695 -35.75 16.3125 C-26.48360655 2.42510244 -16.62700421 -0.87382796 0 0 Z " fill="#E8E8E8" transform="translate(81,13)"/>
<path d="M0 0 C6.15234375 -0.09765625 6.15234375 -0.09765625 8 0 C9.87444526 1.87444526 9.26079845 4.86611418 9.3125 7.375 C9.2297609 16.41194809 7.31084598 24.50257073 0.9921875 31.23046875 C-3.4163149 35.14625617 -8.20468416 38.57809986 -13 42 C-17.13718891 40.20953589 -18.66320139 37.83902629 -21 34 C-19.58398286 33.51891725 -18.16715563 33.04021859 -16.75 32.5625 C-15.96109375 32.29566406 -15.1721875 32.02882812 -14.359375 31.75390625 C-12 31 -12 31 -9.765625 30.5703125 C-9.18296875 30.38210937 -8.6003125 30.19390625 -8 30 C-7.26480478 28.02416285 -6.60927518 26.01822402 -6 24 C-4 20.625 -4 20.625 -2 18 C-1.34 18 -0.68 18 0 18 C1.13210475 15.86920862 1.13210475 15.86920862 1 13 C-0.66326324 10.97099301 -2.467552 9.28597661 -4.43359375 7.55078125 C-4.95050781 7.03902344 -5.46742187 6.52726562 -6 6 C-6 5.34 -6 4.68 -6 4 C-2.535 3.505 -2.535 3.505 1 3 C0.67 2.01 0.34 1.02 0 0 Z " fill="#999999" transform="translate(74,14)"/>
<path d="M0 0 C0.33 1.32 0.66 2.64 1 4 C2.32 4.33 3.64 4.66 5 5 C6.11209931 8.43739786 6.09163471 9.77745857 4.6875 13.1875 C2.00983734 17.65027111 -0.10489638 18.53146891 -5 20 C-6.11375 20.3403125 -6.11375 20.3403125 -7.25 20.6875 C-9 21 -9 21 -11 20 C-12.32 20 -13.64 20 -15 20 C-14.979375 19.236875 -14.95875 18.47375 -14.9375 17.6875 C-14.87057159 14.89814214 -14.87057159 14.89814214 -16 12 C-15.34 11.01 -14.68 10.02 -14 9 C-13.71125 8.01 -13.4225 7.02 -13.125 6 C-11.88545845 2.69455587 -11.00751259 1.73159816 -8 0 C-4.71023192 -1.09658936 -3.28696233 -0.79953138 0 0 Z " fill="#FE9719" transform="translate(29,62)"/>
<path d="M0 0 C2.9375 2.0625 2.9375 2.0625 5 5 C5.375 8.5625 5.375 8.5625 5 12 C4.95875 12.7425 4.9175 13.485 4.875 14.25 C3.33672151 17.32655698 1.16108839 17.90798765 -2 19 C-4.78758991 18.9499535 -7.24205674 18.5230582 -10 18 C-10.33 18.66 -10.66 19.32 -11 20 C-12.65 20 -14.3 20 -16 20 C-14.68 19.67 -13.36 19.34 -12 19 C-12.33 18.01 -12.66 17.02 -13 16 C-12.67 15.34 -12.34 14.68 -12 14 C-11.87273355 12.37664577 -11.77194369 10.7511442 -11.6875 9.125 C-11.36931637 5.83868551 -11.13680387 4.22099087 -9.375 1.375 C-5.97051215 -0.59601928 -3.86942199 -0.61096137 0 0 Z " fill="#AEB9BE" transform="translate(62,28)"/>
<path d="M0 0 C1.6506773 2.97121914 2.75777916 5.58784562 3 9 C1.7421875 11.28125 1.7421875 11.28125 -0.125 13.5 C-0.77210937 14.27214844 -1.41921875 15.04429688 -2.0859375 15.83984375 C-2.71757813 16.55269531 -3.34921875 17.26554687 -4 18 C-4.48726562 18.55816406 -4.97453125 19.11632812 -5.4765625 19.69140625 C-6.75 21.0625 -6.75 21.0625 -9 23 C-9.99 23 -10.98 23 -12 23 C-12.72750788 21.59308393 -13.43140353 20.17393978 -14.125 18.75 C-14.51945312 17.96109375 -14.91390625 17.1721875 -15.3203125 16.359375 C-16 14 -16 14 -15.5625 12.03125 C-13.16909072 8.91981794 -10.09854761 6.94584233 -6.875 4.75 C-6.21628906 4.29109375 -5.55757812 3.8321875 -4.87890625 3.359375 C-3.2579995 2.23178769 -1.62970314 1.11483609 0 0 Z " fill="#284C7A" transform="translate(57,57)"/>
<path d="M0 0 C2.203125 0.80859375 2.203125 0.80859375 3.75 1.5625 C0.47243905 7.84449181 -3.73636368 13.11765231 -8.25 18.5625 C-12.4705965 17.2029241 -16.3181098 15.62206153 -20.25 13.5625 C-16.56440962 6.52979183 -8.56845678 -1.98570586 0 0 Z " fill="#0C70D6" transform="translate(35.25,36.4375)"/>
<path d="M0 0 C0 0.33 0 0.66 0 1 C-1.98 1.33 -3.96 1.66 -6 2 C-6 2.66 -6 3.32 -6 4 C-8.31 4.33 -10.62 4.66 -13 5 C-12.4946875 5.53109375 -11.989375 6.0621875 -11.46875 6.609375 C-10.8190625 7.31578125 -10.169375 8.0221875 -9.5 8.75 C-8.8503125 9.44609375 -8.200625 10.1421875 -7.53125 10.859375 C-6 13 -6 13 -6 17 C-7.20038226 18.49236714 -8.40789125 19.98123116 -9.6875 21.40625 C-11.59024994 23.71673207 -12.77238633 26.28632767 -14 29 C-15 27 -15 27 -14.8125 23.625 C-14.65989954 19.99971782 -14.65989954 19.99971782 -16.75 17.6875 C-19.17702205 15.76241778 -19.17702205 15.76241778 -23 14 C-18.545 13.505 -18.545 13.505 -14 13 C-14.94875 11.906875 -15.8975 10.81375 -16.875 9.6875 C-18.76954348 7.50465642 -20.3889658 5.4165513 -22 3 C-14.69065285 -0.50848663 -8.00945568 -0.30372936 0 0 Z " fill="#E5E2E2" transform="translate(81,13)"/>
<path d="M0 0 C0.66 0.33 1.32 0.66 2 1 C2.33 1.99 2.66 2.98 3 4 C3.66 4.33 4.32 4.66 5 5 C3.73537633 9.63695346 1.12166658 12.01269841 -2.24609375 15.21875 C-4.60065569 17.61002003 -6.25682174 20.14118765 -8 23 C-11.31726155 22.42805835 -12.72635823 21.42999536 -15 19 C-14.48050781 18.3709375 -13.96101563 17.741875 -13.42578125 17.09375 C-9.59691817 12.39436906 -6.03377916 7.75450435 -3.0078125 2.49609375 C-2 1 -2 1 0 0 Z " fill="#E8E9EB" transform="translate(41,36)"/>
<path d="M0 0 C6.15234375 -0.09765625 6.15234375 -0.09765625 8 0 C9.93154485 1.93154485 9.21854009 5.3110177 9.25 7.875 C9.28867188 9.75832031 9.28867188 9.75832031 9.328125 11.6796875 C9 15 9 15 7.484375 16.9453125 C6.99453125 17.29335938 6.5046875 17.64140625 6 18 C3.99387601 16.04761147 1.99507567 14.08862178 0 12.125 C-0.57234375 11.56941406 -1.1446875 11.01382812 -1.734375 10.44140625 C-3.19450782 8.99865596 -4.60149298 7.5025626 -6 6 C-6 5.34 -6 4.68 -6 4 C-2.535 3.505 -2.535 3.505 1 3 C0.67 2.01 0.34 1.02 0 0 Z " fill="#B8392E" transform="translate(74,14)"/>
<path d="M0 0 C3.875 1.875 3.875 1.875 5 3 C5.58035714 9.15178571 5.58035714 9.15178571 3.375 12.375 C0.45721024 14.37138247 -1.46679161 14.92639149 -5 15 C-7.375 13.5625 -7.375 13.5625 -9 12 C-7.55575365 8.76138697 -5.74227753 6.38030837 -3.375 3.75 C-2.74335937 3.04359375 -2.11171875 2.3371875 -1.4609375 1.609375 C-0.97882812 1.07828125 -0.49671875 0.5471875 0 0 Z " fill="#2C8CDE" transform="translate(62,30)"/>
<path d="M0 0 C-1.58667578 3.90285767 -4.13350481 6.33520982 -7.125 9.25 C-8.03507812 10.14203125 -8.94515625 11.0340625 -9.8828125 11.953125 C-10.93082031 12.96632813 -10.93082031 12.96632813 -12 14 C-10.97483135 16.06763972 -9.93854481 18.10997245 -8.8125 20.125 C-8.544375 20.74375 -8.27625 21.3625 -8 22 C-8.33 22.66 -8.66 23.32 -9 24 C-12.16115776 22.63016497 -12.9927092 22.0109362 -15 19 C-15.99 18.67 -16.98 18.34 -18 18 C-18.66666667 16.66666667 -19.33333333 15.33333333 -20 14 C-21.32392972 12.98758315 -22.65599167 11.98560611 -24 11 C-24 10.34 -24 9.68 -24 9 C-22.25 8.25 -22.25 8.25 -20 8 C-17.75 9.9375 -17.75 9.9375 -16 12 C-12.10297892 10.42306589 -9.7510227 7.88838498 -6.875 4.875 C-2.22096317 0 -2.22096317 0 0 0 Z " fill="#32517C" transform="translate(48,48)"/>
<path d="M0 0 C0 0.99 0 1.98 0 3 C1.32 3.33 2.64 3.66 4 4 C3.1875 7.4375 3.1875 7.4375 2 11 C-1.13349732 12.04449911 -1.98968256 11.93423645 -5 11 C-5 10.01 -5 9.02 -5 8 C-5.99 7.67 -6.98 7.34 -8 7 C-8 6.34 -8 5.68 -8 5 C-8.66 4.67 -9.32 4.34 -10 4 C-4.75 -1.425 -4.75 -1.425 0 0 Z " fill="#FFB12D" transform="translate(30,63)"/>
<path d="M0 0 C-1.38729054 3.98309706 -3.24110464 6.90258522 -5.875 10.1875 C-6.55304687 11.04730469 -7.23109375 11.90710938 -7.9296875 12.79296875 C-9.89721545 14.89042779 -11.35962136 15.94029646 -14 17 C-17 11.25 -17 11.25 -17 9 C-14.56866946 7.36136603 -12.15228465 5.85078666 -9.625 4.375 C-8.57699219 3.74464844 -8.57699219 3.74464844 -7.5078125 3.1015625 C-2.27140828 0 -2.27140828 0 0 0 Z " fill="#1B579A" transform="translate(60,64)"/>
<path d="M0 0 C0.33 0 0.66 0 1 0 C1.07654536 4.51617599 1.10228696 8.59085217 0 13 C-1.32 13 -2.64 13 -4 13 C-4.22429688 13.55171875 -4.44859375 14.1034375 -4.6796875 14.671875 C-6.40385183 17.71211744 -8.62515822 19.81425673 -11.125 22.25 C-12.03507812 23.14203125 -12.94515625 24.0340625 -13.8828125 24.953125 C-14.58148438 25.62859375 -15.28015625 26.3040625 -16 27 C-16.99 26.67 -17.98 26.34 -19 26 C-15.52160592 21.09457246 -11.87052585 16.72313562 -7.546875 12.54296875 C-5.82496838 10.82541038 -4.3673709 9.01083956 -3 7 C-2.34 7.33 -1.68 7.66 -1 8 C-0.67 5.36 -0.34 2.72 0 0 Z " fill="#CACDD0" transform="translate(50,34)"/>
<path d="M0 0 C2.64 0 5.28 0 8 0 C7.40716379 3.39192363 6.23256811 5.2107757 3.9375 7.75 C3.38964844 8.36359375 2.84179688 8.9771875 2.27734375 9.609375 C1.85582031 10.06828125 1.43429688 10.5271875 1 11 C-1.84223197 9.63760782 -3.96027641 8.44766831 -6 6 C-6 5.34 -6 4.68 -6 4 C-2.535 3.505 -2.535 3.505 1 3 C0.67 2.01 0.34 1.02 0 0 Z " fill="#E52F33" transform="translate(74,14)"/>
<path d="M0 0 C1.32 0.99 2.64 1.98 4 3 C2.66089729 7.01730812 0.95644897 9.04355103 -2 12 C-3.06011943 13.96879323 -4.07470849 15.96435867 -5 18 C-6 16 -6 16 -5.875 12.625 C-6.00605183 8.82449684 -6.43210977 7.67488566 -9 5 C-7.02 5 -5.04 5 -3 5 C-2.67 4.01 -2.34 3.02 -2 2 C-1.34 2 -0.68 2 0 2 C0 1.34 0 0.68 0 0 Z " fill="#B4AEAE" transform="translate(72,24)"/>
<path d="M0 0 C0.66 0 1.32 0 2 0 C2.33 1.98 2.66 3.96 3 6 C8.15171623 6.09038099 12.91913204 5.84681133 18 5 C15.56067212 8.65899181 14.13406391 8.84246211 10 10 C8.88625 10.3403125 8.88625 10.3403125 7.75 10.6875 C6 11 6 11 4 10 C2.68 10 1.36 10 0 10 C0.020625 9.236875 0.04125 8.47375 0.0625 7.6875 C0.12942841 4.89814214 0.12942841 4.89814214 -1 2 C-0.67 1.34 -0.34 0.68 0 0 Z " fill="#F14813" transform="translate(14,72)"/>
<path d="M0 0 C-1.52708963 3.43595166 -3.59927045 6.11912454 -6 9 C-11.75 7.125 -11.75 7.125 -14 6 C-13 3 -13 3 -10.8125 1.875 C-7.24715949 0.76578295 -3.74556753 0 0 0 Z " fill="#186CC4" transform="translate(33,46)"/>
<path d="M0 0 C0.33 0.66 0.66 1.32 1 2 C-6.75339489 14.22650733 -6.75339489 14.22650733 -13 17 C-14.11375 17.556875 -14.11375 17.556875 -15.25 18.125 C-15.8275 18.41375 -16.405 18.7025 -17 19 C-15.42369323 15.12678907 -12.92252331 12.75264837 -9.9375 9.875 C-6.53546517 6.75894235 -6.53546517 6.75894235 -4 3 C-3.01 3 -2.02 3 -1 3 C-0.67 2.01 -0.34 1.02 0 0 Z " fill="#AFAFAF" transform="translate(52,45)"/>
<path d="M0 0 C-2.47722963 4.80873987 -5.98957117 8.43174665 -10 12 C-10.33 12 -10.66 12 -11 12 C-11.48192771 4.77108434 -11.48192771 4.77108434 -9.4375 1.5 C-6.17971981 -0.50478781 -3.75217167 -0.28862859 0 0 Z " fill="#51B2E8" transform="translate(63,29)"/>
<path d="M0 0 C-2.97 1.65 -5.94 3.3 -9 5 C-9.08004482 8.5219721 -9.04005702 11.61981469 -8 15 C-6.35 15 -4.7 15 -3 15 C-3 15.66 -3 16.32 -3 17 C-5.64 16.67 -8.28 16.34 -11 16 C-12.35754476 12.22904234 -13.14006917 9.7283597 -12.375 5.75 C-9.64546385 0.2909277 -5.92412009 -1.48103002 0 0 Z " fill="#F6580C" transform="translate(28,62)"/>
<path d="M0 0 C1.89492187 0.01353516 1.89492187 0.01353516 3.828125 0.02734375 C4.79234375 0.03894531 5.7565625 0.05054688 6.75 0.0625 C6.75 0.3925 6.75 0.7225 6.75 1.0625 C4.77 1.3925 2.79 1.7225 0.75 2.0625 C0.75 2.7225 0.75 3.3825 0.75 4.0625 C-0.384375 4.18625 -1.51875 4.31 -2.6875 4.4375 C-4.4509375 4.746875 -4.4509375 4.746875 -6.25 5.0625 C-6.58 5.7225 -6.91 6.3825 -7.25 7.0625 C-7.25 6.4025 -7.25 5.7425 -7.25 5.0625 C-8.57 4.4025 -9.89 3.7425 -11.25 3.0625 C-11.25 2.4025 -11.25 1.7425 -11.25 1.0625 C-7.49600202 -0.1414337 -3.91782588 -0.03627617 0 0 Z " fill="#F49998" transform="translate(74.25,12.9375)"/>
<path d="M0 0 C-0.9080162 1.13199353 -1.82683826 2.25532363 -2.75 3.375 C-3.26046875 4.00148438 -3.7709375 4.62796875 -4.296875 5.2734375 C-6.08199481 7.08312318 -7.67949644 8.00117455 -10 9 C-10.66 7.35 -11.32 5.7 -12 4 C-5.30232558 -1.76744186 -5.30232558 -1.76744186 0 0 Z " fill="#185DAA" transform="translate(56,72)"/>
<path d="M0 0 C-1.33956169 4.01868507 -3.90964739 5.12247846 -7.375 7.1875 C-7.96539062 7.55552734 -8.55578125 7.92355469 -9.1640625 8.30273438 C-11.98898773 10.01741309 -13.63751052 11 -17 11 C-17 10.34 -17 9.68 -17 9 C-14.56866946 7.36136603 -12.15228465 5.85078666 -9.625 4.375 C-8.57699219 3.74464844 -8.57699219 3.74464844 -7.5078125 3.1015625 C-2.27140828 0 -2.27140828 0 0 0 Z " fill="#1F508B" transform="translate(59,62)"/>
<path d="M0 0 C0.33 0 0.66 0 1 0 C1 2.64 1 5.28 1 8 C0.01 8.33 -0.98 8.66 -2 9 C-2 9.66 -2 10.32 -2 11 C-3.609375 12.62109375 -3.609375 12.62109375 -5.75 14.4375 C-6.79414062 15.33275391 -6.79414062 15.33275391 -7.859375 16.24609375 C-9.86673589 17.89081098 -11.91070312 19.46126108 -14 21 C-12.57442379 17.82096506 -10.8226848 15.46341568 -8.5 12.875 C-7.8915625 12.19179688 -7.283125 11.50859375 -6.65625 10.8046875 C-5.46695076 9.50880012 -4.24373566 8.24373566 -3 7 C-2.34 7.33 -1.68 7.66 -1 8 C-0.67 5.36 -0.34 2.72 0 0 Z " fill="#DADADA" transform="translate(50,34)"/>
<path d="M0 0 C0.66 0.33 1.32 0.66 2 1 C2 1.99 2 2.98 2 4 C1.34 4 0.68 4 0 4 C0.33 4.99 0.66 5.98 1 7 C-2.27185553 8.07310858 -4.42947592 7.89263102 -7.75 7.0625 C-8.54921875 6.86785156 -9.3484375 6.67320313 -10.171875 6.47265625 C-11.07679687 6.23869141 -11.07679687 6.23869141 -12 6 C-8.5647952 3.70986347 -7.014669 3.82157027 -3 4 C-2.67 3.34 -2.34 2.68 -2 2 C-1.34 2 -0.68 2 0 2 C0 1.34 0 0.68 0 0 Z " fill="#D2CECE" transform="translate(70,22)"/>
<path d="M0 0 C0.33 0 0.66 0 1 0 C1 3.3 1 6.6 1 10 C0.01 10 -0.98 10 -2 10 C-3.6875 8 -3.6875 8 -5 6 C-3.35830472 3.97945196 -1.69088222 1.97956942 0 0 Z " fill="#91290C" transform="translate(81,21)"/>
<path d="M0 0 C0.33 0.66 0.66 1.32 1 2 C1.66 2 2.32 2 3 2 C2.67 3.32 2.34 4.64 2 6 C2.99 6 3.98 6 5 6 C5 6.99 5 7.98 5 9 C6.32 8.67 7.64 8.34 9 8 C9 8.66 9 9.32 9 10 C9.66 10.33 10.32 10.66 11 11 C4.50159236 11.36783439 4.50159236 11.36783439 2.125 9.625 C-0.16242017 6.32094865 -0.08650741 3.97934099 0 0 Z " fill="#FE7E08" transform="translate(18,67)"/>
<path d="M0 0 C0.33 0 0.66 0 1 0 C0.6875 3.375 0.6875 3.375 0 7 C-3.22791555 9.1519437 -4.28400809 9.20086443 -8 9 C-7.04270084 7.87411986 -6.08412105 6.7493285 -5.125 5.625 C-4.59132812 4.99851562 -4.05765625 4.37203125 -3.5078125 3.7265625 C-2.38567993 2.44163349 -1.20628025 1.20628025 0 0 Z " fill="#1376D9" transform="translate(66,35)"/>
<path d="M0 0 C0.99 0.33 1.98 0.66 3 1 C-0.50897269 5.18423892 -4.08060535 9.19588166 -8 13 C-8 9 -8 9 -6.50390625 7.1484375 C-5.54291016 6.27058594 -5.54291016 6.27058594 -4.5625 5.375 C-1.90410125 2.97303967 -1.90410125 2.97303967 0 0 Z " fill="#3EA1E5" transform="translate(62,30)"/>
<path d="M0 0 C0.99 0 1.98 0 3 0 C3 0.99 3 1.98 3 3 C4.32 3.33 5.64 3.66 7 4 C6.67 5.32 6.34 6.64 6 8 C4.35 7.67 2.7 7.34 1 7 C0.67 4.69 0.34 2.38 0 0 Z " fill="#FCDF7F" transform="translate(27,63)"/>
<path d="M0 0 C0.99 0.33 1.98 0.66 3 1 C2.34 1 1.68 1 1 1 C2.30155006 5.07964281 2.30155006 5.07964281 4 9 C4.99 9.33 5.98 9.66 7 10 C1.54375 9.39375 1.54375 9.39375 -0.8125 7.6875 C-2.13901127 5.80245767 -2.61053706 4.25888508 -3 2 C-2.01 1.34 -1.02 0.68 0 0 Z " fill="#FECA44" transform="translate(26,62)"/>
<path d="M0 0 C3.42353587 1.21480305 5.01180815 3.01771223 7 6 C6.01 6.66 5.02 7.32 4 8 C1.95880212 6.38405168 -0.04072937 4.7143618 -2 3 C-2 2.34 -2 1.68 -2 1 C-1.34 0.67 -0.68 0.34 0 0 Z " fill="#0E6BC9" transform="translate(26,56)"/>
<path d="M0 0 C4.875 2.75 4.875 2.75 6 5 C5.0625 7.125 5.0625 7.125 4 9 C1.4375 6.75 1.4375 6.75 -1 4 C-0.8125 1.6875 -0.8125 1.6875 0 0 Z " fill="#9D9390" transform="translate(76,28)"/>
<path d="M0 0 C2.10546875 0.4296875 2.10546875 0.4296875 4 1 C3.04882866 2.1725131 2.08882991 3.33787015 1.125 4.5 C0.59132813 5.1496875 0.05765625 5.799375 -0.4921875 6.46875 C-0.98976562 6.9740625 -1.48734375 7.479375 -2 8 C-2.66 8 -3.32 8 -4 8 C-3.63287028 5.28324005 -3.27255401 3.38936287 -1.6875 1.125 C-1.130625 0.75375 -0.57375 0.3825 0 0 Z " fill="#7ECEF1" transform="translate(56,29)"/>
<path d="M0 0 C2.97 0 5.94 0 9 0 C8.525625 0.680625 8.05125 1.36125 7.5625 2.0625 C5.78162385 5.41054716 5.50184395 8.27201636 5 12 C4.01 12.495 4.01 12.495 3 13 C3.03480469 12.39671875 3.06960937 11.7934375 3.10546875 11.171875 C3.3514449 6.07474512 3.3514449 6.07474512 1.5 1.4375 C1.005 0.963125 0.51 0.48875 0 0 Z " fill="#B2B9BF" transform="translate(63,29)"/>
<path d="M0 0 C1.32 0 2.64 0 4 0 C3.8125 1.8125 3.8125 1.8125 3 4 C0.6875 5.8125 0.6875 5.8125 -2 7 C-4.3125 6.6875 -4.3125 6.6875 -6 6 C-6 5.34 -6 4.68 -6 4 C-2.535 3.505 -2.535 3.505 1 3 C0.67 2.01 0.34 1.02 0 0 Z " fill="#EE595B" transform="translate(74,14)"/>
<path d="M0 0 C0.66 0 1.32 0 2 0 C2.33 1.65 2.66 3.3 3 5 C5.31 5.66 7.62 6.32 10 7 C9.67 7.66 9.34 8.32 9 9 C6.36 8.67 3.72 8.34 1 8 C1.020625 7.236875 1.04125 6.47375 1.0625 5.6875 C1.12942841 2.89814214 1.12942841 2.89814214 0 0 Z " fill="#E72721" transform="translate(13,74)"/>
<path d="M0 0 C-0.8125 1.9375 -0.8125 1.9375 -2 4 C-5 5 -5 5 -8.1875 3.5625 C-9.115625 3.046875 -10.04375 2.53125 -11 2 C-11 1.67 -11 1.34 -11 1 C-3.375 0 -3.375 0 0 0 Z " fill="#1C5DA5" transform="translate(30,50)"/>
<path d="M0 0 C0.33 0.66 0.66 1.32 1 2 C-2.625 7.75 -2.625 7.75 -6 10 C-5.125 5.25 -5.125 5.25 -4 3 C-3.01 3 -2.02 3 -1 3 C-0.67 2.01 -0.34 1.02 0 0 Z " fill="#AAABAC" transform="translate(52,45)"/>
<path d="M0 0 C0 3 0 3 -2.5 5.6875 C-3.325 6.450625 -4.15 7.21375 -5 8 C-5.66 7.67 -6.32 7.34 -7 7 C-5.54744301 3.17053157 -3.57104439 1.87949705 0 0 Z " fill="#1160B9" transform="translate(52,73)"/>
<path d="M0 0 C-1.5830577 4.2742558 -4.50568404 6.26531794 -8 9 C-8 6 -8 6 -6.7578125 4.39453125 C-5.94957031 3.61142578 -5.94957031 3.61142578 -5.125 2.8125 C-4.59132813 2.28269531 -4.05765625 1.75289062 -3.5078125 1.20703125 C-2 0 -2 0 0 0 Z " fill="#3A6D9F" transform="translate(48,48)"/>
<path d="M0 0 C1.07349791 4.29399165 0.79682816 5.19495213 -1 9 C-1.99 8.67 -2.98 8.34 -4 8 C-2.68 5.36 -1.36 2.72 0 0 Z " fill="#F8770B" transform="translate(34,68)"/>
<path d="M0 0 C0.99 0.66 1.98 1.32 3 2 C2.67 3.32 2.34 4.64 2 6 C0.68 5.34 -0.64 4.68 -2 4 C-1.34 2.68 -0.68 1.36 0 0 Z " fill="#264877" transform="translate(37,66)"/>
<path d="M0 0 C0 3.52032428 -0.70351351 4.4385343 -3 7 C-3.66 7 -4.32 7 -5 7 C-3.70700306 4.11562221 -2.34058637 2.12780579 0 0 Z " fill="#B7B9BB" transform="translate(40,57)"/>
<path d="M0 0 C0 0.66 0 1.32 0 2 C-3.3 2.33 -6.6 2.66 -10 3 C-6.88378718 -0.11621282 -4.21175599 -0.11383124 0 0 Z " fill="#1463B8" transform="translate(31,48)"/>
<path d="M0 0 C0.33 1.32 0.66 2.64 1 4 C-0.32 4.33 -1.64 4.66 -3 5 C-1.125 1.125 -1.125 1.125 0 0 Z M2 1 C2.66 1.33 3.32 1.66 4 2 C3.01 2 2.02 2 1 2 C1.33 1.67 1.66 1.34 2 1 Z " fill="#265085" transform="translate(44,66)"/>
<path d="M0 0 C0.99 0.66 1.98 1.32 3 2 C2.67 2.99 2.34 3.98 2 5 C0.02 4.34 -1.96 3.68 -4 3 C-2.68 2.01 -1.36 1.02 0 0 Z " fill="#275890" transform="translate(34,63)"/>
<path d="M0 0 C-5.625 3 -5.625 3 -9 3 C-9 2.34 -9 1.68 -9 1 C-5.57367167 -0.61798838 -3.61944899 -1.34053666 0 0 Z " fill="#F7750A" transform="translate(28,62)"/>
</svg>
